<svg xmlns="http://www.w3.org/2000/svg" viewBox="0 0 74.5 73.03">
    <defs>
        <style>.cls-1{fill:#bacbdf;}.cls-2{fill:#fff;}</style>
    </defs>
    <title>Recurso 290</title>
    <g id="Capa_2" data-name="Capa 2">
        <g id="Capa_1-2" data-name="Capa 1">
            <path id="icon_svg_student" class="cls-2"
                  d="M57.44,29,38.11,19.33a1.89,1.89,0,0,0-1.73,0L17.06,29a1.9,1.9,0,0,0-.86.89,2.35,2.35,0,0,0-.21.84V41.86a1.93,1.93,0,1,0,3.86,0V33.57l3.87,1.55V44.6a1.93,1.93,0,0,0,1.07,1.73C28.11,48,31.53,50,37.25,50s9.14-2.05,12.46-3.7a2,2,0,0,0,1.07-1.73V35.12l6.51-2.61A1.93,1.93,0,0,0,57.44,29ZM46.91,43.4,45,44.34a17.45,17.45,0,0,1-15.56,0l-1.88-.94V36.67l8.94,3.57a1.92,1.92,0,0,0,1.44,0l8.94-3.57Zm-9.66-7L22.64,30.52l14.61-7.3,14.61,7.3Z"/>
            <path class="cls-2"
                  d="M17.92,46.18A1.93,1.93,0,0,0,16,48.11V52a1.93,1.93,0,0,0,3.86,0V48.11A1.93,1.93,0,0,0,17.92,46.18Z"/>
        </g>
    </g>
</svg>